# xmcd
#
# Track frame offsets:
#	150
#	22429
#	40345
#	61123
#	84021
#	103474
#	110098
#	131461
#	151370
#	177524
#	201318
#	225949
#	247417
#
# Disc length: 3588 seconds
#
# Revision: 1
# Processed by: cddbd v1.4PL0 Copyright (c) Steve Scherf et al.
# Submitted via: audiograbber 1.80
#
DISCID=b70e020d
DTITLE=Santana - Greatest and Wonderful Hits
DYEAR=1900
DGENRE=
TTITLE0=Smooth
TTITLE1=Caminos Del Mal
TTITLE2=Corazon Espinado
TTITLE3=Europa
TTITLE4=Oye Como Va
TTITLE5=Marathon
TTITLE6=Samba Pa'Ti
TTITLE7=Sabes Que Te Quiero
TTITLE8=Love of my Life
TTITLE9=Mujer De Magia Negra
TTITLE10=Migra
TTITLE11=Te Quiero Mucho, Demasiado
TTITLE12=El Farol
EXTD=
EXTT0=
EXTT1=
EXTT2=
EXTT3=
EXTT4=
EXTT5=
EXTT6=
EXTT7=
EXTT8=
EXTT9=
EXTT10=
EXTT11=
EXTT12=
PLAYORDER=
